<?xml version="1.0" encoding="UTF-8" standalone="no"?>
<!-- Created with Inkscape (http://www.inkscape.org/) -->

<svg
   width="108.39448mm"
   height="79.077461mm"
   viewBox="0 0 108.39448 79.077461"
   version="1.1"
   id="svg1"
   xml:space="preserve"
   inkscape:version="1.3 (0e150ed6c4, 2023-07-21)"
   sodipodi:docname="finallogo1.svg"
   xmlns:inkscape="http://www.inkscape.org/namespaces/inkscape"
   xmlns:sodipodi="http://sodipodi.sourceforge.net/DTD/sodipodi-0.dtd"
   xmlns="http://www.w3.org/2000/svg"
   xmlns:svg="http://www.w3.org/2000/svg"><sodipodi:namedview
     id="namedview1"
     pagecolor="#007fff"
     bordercolor="#000000"
     borderopacity="0.25"
     inkscape:showpageshadow="2"
     inkscape:pageopacity="0.0"
     inkscape:pagecheckerboard="0"
     inkscape:deskcolor="#d1d1d1"
     inkscape:document-units="mm"
     showgrid="false"
     inkscape:zoom="0.69219276"
     inkscape:cx="306.99541"
     inkscape:cy="262.2102"
     inkscape:window-width="1920"
     inkscape:window-height="991"
     inkscape:window-x="-9"
     inkscape:window-y="-9"
     inkscape:window-maximized="1"
     inkscape:current-layer="layer1" /><defs
     id="defs1" /><g
     inkscape:label="Layer 1"
     inkscape:groupmode="layer"
     id="layer1"
     transform="translate(85.349745,43.170005)"><g
       inkscape:label="Layer 1"
       id="layer1-3"
       transform="translate(-143.36491,-116.55583)"><path
         style="font-size:17.6389px;font-family:'Super Boys';-inkscape-font-specification:'Super Boys';fill:#f9f9f9;stroke-width:0.264583"
         d="m 70.470237,123.66581 q -0.10953,1.09698 -0.723882,1.87523 -0.622922,0.77739 -1.569836,1.24546 -0.954629,0.45864 -2.096985,0.63021 -1.150069,0.16215 -2.307037,0.0466 -1.114117,-0.11125 -2.142572,-0.4736 -1.028455,-0.36236 -1.808415,-0.95957 -0.787674,-0.60664 -1.198302,-1.43529 -0.419199,-0.82952 -0.315658,-1.8665 0.11552,-1.15697 0.771011,-1.9138 0.656347,-0.7654 1.625562,-1.11006 0.960645,-0.34552 2.032767,-0.24712 0.334235,0.0334 0.493723,0.60325 0.151774,0.56046 0.09102,1.16893 -0.05134,0.51421 -0.272389,0.90761 -0.229616,0.39254 -0.664113,0.40974 -0.215965,-0.004 -0.436208,0.0344 -0.228813,0.0377 -0.386485,0.14318 -0.166242,0.10458 -0.186779,0.31026 -0.03337,0.33424 0.346319,0.60585 0.380548,0.26304 1.011328,0.4472 0.623065,0.17473 1.342956,0.24661 0.779882,0.0779 1.530604,0.0143 0.743008,-0.073 1.251174,-0.30785 0.500451,-0.24432 0.544092,-0.6814 0.02396,-0.23996 -0.248599,-0.4576 -0.272559,-0.21764 -0.646235,-0.37613 -0.37282,-0.16705 -0.686492,-0.233 -0.21083,-0.0557 -0.284578,-0.35732 -0.07289,-0.31022 -0.03182,-0.72159 0.04193,-0.41994 0.198694,-0.86303 0.15762,-0.45166 0.412105,-0.74651 0.254484,-0.29485 0.580149,-0.26233 0.785029,0.11301 1.569242,0.49425 0.710504,0.33927 1.235928,0.8851 1.146842,1.17049 0.969711,2.9445 z m 1.332037,-7.01912 q -0.148047,0.4951 -0.376994,0.93006 -0.237198,0.43249 -0.570261,0.6745 -0.338848,0.23129 -0.795929,0.16653 -1.147679,-0.19036 -2.906835,-0.59054 -1.767407,-0.40264 -3.483767,-0.91587 -2.426008,-0.72543 -3.557587,-1.36045 -0.26992,-0.1796 -0.276188,-0.72984 -0.0063,-0.55023 0.171388,-1.14436 0.118438,-0.39608 0.303739,-0.7452 0.185301,-0.34912 0.402921,-0.53576 0.220087,-0.19488 0.451135,-0.1258 0.948949,0.28376 2.229747,0.81058 1.908778,0.74157 2.973251,1.05987 0.825173,0.24675 1.643713,0.45555 l 0.200509,0.051 q 0.363076,0.10857 0.548699,0.11912 0.17984,-1.6e-4 0.243993,-0.2147 0.130775,-0.43734 -0.05667,-1.55416 -0.06055,-0.3687 -0.09465,-0.67555 -0.03163,-0.3151 0.01525,-0.47189 0.09376,-0.31356 0.568805,-0.45918 0.477509,-0.15387 1.052501,-0.15273 0.57746,-0.007 0.981795,0.11378 0.346572,0.10364 0.442437,0.29411 0.425204,1.31377 0.238726,3.10986 -0.07585,0.97516 -0.349733,1.8911 z m 2.514403,-6.51749 q -0.187283,0.39732 -0.423987,0.65709 -0.233032,0.25198 -0.48422,0.21927 -0.947438,-0.15142 -2.385584,-0.696 -1.442265,-0.55605 -2.953651,-1.26846 -2.804632,-1.322 -4.636568,-2.56637 -0.376628,-0.29179 -0.36575,-0.81987 0.0068,-0.53954 0.252798,-1.06152 0.179939,-0.38174 0.438676,-0.68825 0.258738,-0.30651 0.544417,-0.44798 0.285679,-0.14147 0.542771,-0.0203 2.009987,0.94744 3.316035,1.61067 1.465981,0.74813 2.883878,1.41648 0.872553,0.41129 2.190167,0.90858 0.753908,0.27919 1.318507,0.5358 0.179185,0.0845 0.191781,0.46174 0.0048,0.37361 -0.111023,0.86174 -0.119947,0.47667 -0.318247,0.89737 z m 3.567949,-6.44239 q -0.622064,0.91016 -1.534331,1.29858 -0.919377,0.38356 -1.974774,0.34032 -1.057648,-0.0552 -2.142405,-0.45234 -1.087008,-0.4091 -2.046942,-1.06518 -0.924381,-0.63179 -1.653191,-1.44287 -0.72881,-0.81109 -1.126948,-1.70913 -0.400389,-0.910017 -0.363445,-1.834097 0.02983,-0.928939 0.617878,-1.789325 0.656083,-0.959934 1.594183,-1.309831 0.94296,-0.357008 1.958761,-0.194783 1.008691,0.157365 1.902378,0.757739 0.277315,0.189535 0.144048,0.766112 -0.135517,0.564606 -0.480569,1.06946 -0.291592,0.426638 -0.674189,0.66589 -0.389708,0.234393 -0.779259,0.04117 -0.187485,-0.107275 -0.39927,-0.178998 -0.218895,-0.07658 -0.407814,-0.05965 -0.196029,0.01207 -0.312666,0.182726 -0.189536,0.277315 0.01345,0.697716 0.207842,0.41329 0.673101,0.877331 0.463008,0.45207 1.0603,0.8603 0.647067,0.44225 1.336338,0.74643 0.687021,0.29221 1.245592,0.32971 0.55632,0.0255 0.804174,-0.33711 0.136076,-0.1991 0.0012,-0.52077 -0.134844,-0.32167 -0.386784,-0.63991 -0.24708,-0.32535 -0.490734,-0.53361 -0.158326,-0.14994 -0.07842,-0.450023 0.08477,-0.30719 0.318042,-0.6485 0.238134,-0.348421 0.588146,-0.662105 0.354871,-0.320796 0.719563,-0.457532 0.364691,-0.136736 0.634895,0.04794 0.634738,0.475551 1.140151,1.186112 0.460858,0.638378 0.660257,1.369298 0.445246,1.57704 -0.560749,3.04893 z m 7.582659,-8.293755 q -0.343265,0.326438 -0.736275,0.450589 -0.398946,0.11791 -0.733767,-0.134184 -0.741172,-0.566906 -1.775189,-1.116802 -2.290697,-1.20895 -2.459209,-1.048698 -0.07489,0.07122 0.0058,0.25601 0.08095,0.172612 0.235268,0.334882 0.747841,0.786388 1.832339,1.751811 0.590037,0.520465 1.029551,0.970135 0.182463,0.254358 -0.16845,0.885207 -0.356847,0.624608 -0.862382,1.105363 -0.3183,0.302698 -0.632929,0.459278 -0.308387,0.150646 -0.530744,0.02931 -0.828548,-0.483813 -1.972398,-1.511648 -1.143545,-1.040011 -2.294982,-2.250798 -2.136689,-2.246822 -3.394595,-4.06949 -0.245609,-0.408246 -0.03824,-0.902584 0.20143,-0.50058 0.619588,-0.898241 0.455606,-0.433273 0.984087,-0.614941 0.52848,-0.181668 0.844272,0.100409 0.380162,0.387258 0.872787,0.905275 0.451079,0.474329 0.594626,0.337819 0.218441,-0.207734 -0.213487,-1.68677 -0.111975,-0.392705 -0.315548,-1.019209 -0.16325,-0.53411 0.323561,-0.997059 0.330782,-0.314568 0.822428,-0.484978 0.497886,-0.176344 0.966525,-0.158478 0.462704,0.01163 0.71792,0.279996 0.09496,0.09986 0.152175,0.247505 0.153521,0.436393 0.287341,1.414483 0.133819,0.978091 0.20125,2.173827 1.06253,0.142445 2.36504,0.674718 1.30251,0.532273 2.401203,1.175174 1.098999,0.630725 1.550384,1.092877 0.330844,0.410388 0.07612,1.09239 -0.254725,0.682002 -0.754018,1.156822 z m 5.515604,-3.841091 q -0.47344,0.282301 -0.933095,0.385913 -0.456669,0.0918 -0.708507,-0.179192 -1.087896,-1.336785 -2.203868,-3.20835 -0.467561,-0.784133 -0.902408,-1.64794 -0.434847,-0.863806 -0.933285,-1.699723 -0.361698,-0.606594 -0.82774,-0.328704 -0.110962,0.06616 -0.248803,0.238605 -0.142252,0.165043 -0.308259,0.374333 -0.166007,0.20929 -0.329027,0.406772 -0.167431,0.190084 -0.300586,0.269481 -0.244117,0.145561 -0.586287,-0.04149 -0.342169,-0.18705 -0.674966,-0.560186 -0.340194,-0.368726 -0.578386,-0.76819 -0.207315,-0.347682 -0.295121,-0.646293 -0.09222,-0.306008 0.0012,-0.451982 0.40925,-0.574939 1.369912,-1.31823 0.96806,-0.747702 2.129466,-1.440222 1.161406,-0.69252 2.27204,-1.184296 1.118032,-0.496188 1.818406,-0.582892 0.172853,-0.01282 0.398225,0.213791 0.220961,0.219214 0.428276,0.566896 0.255835,0.429054 0.418489,0.903642 0.158244,0.467191 0.155718,0.849748 -0.0069,0.375159 -0.258452,0.525131 -0.162744,0.09704 -0.833665,0.216322 -0.591111,0.101775 -0.716868,0.176761 -0.229322,0.13674 -0.191599,0.384993 0.04512,0.243841 0.292134,0.658101 0.789561,1.32415 1.827973,2.931105 0.845754,1.300672 1.494165,2.388103 0.361698,0.606594 0.557067,1.00151 0.09819,0.282391 -0.322593,0.753902 -0.417797,0.459704 -1.009596,0.81258 z m 6.239836,-3.171418 q -0.419159,0.131325 -0.762373,0.130549 -0.343215,-7.76e-4 -0.489284,-0.207727 -0.519514,-0.793944 -1.087777,-2.204403 -0.562619,-1.421254 -1.059594,-3.007483 -0.947599,-3.02452 -1.275965,-5.196084 -0.03577,-0.431046 0.318522,-0.74061 0.351715,-0.317782 0.8695,-0.480007 0.427378,-0.1339 0.871793,-0.155806 0.452634,-0.02448 0.785654,0.0878 0.34124,0.109702 0.42364,0.372703 0.221449,0.706818 0.389036,1.529792 0.168575,0.768511 0.368437,1.46404 0.05922,0.189033 0.317676,0.20734 0.258452,0.01831 0.537891,-0.06924 0.320534,-0.100425 0.566498,-0.29482 0.254183,-0.196969 0.189808,-0.402439 -0.225012,-0.660573 -0.532812,-1.412541 -0.360782,-0.834649 -0.600257,-1.598998 -0.0927,-0.295877 0.493198,-0.759235 0.594117,-0.465933 1.25984,-0.674508 0.402722,-0.126175 0.753661,-0.100743 0.35094,0.02543 0.545333,0.271397 0.52615,0.728687 1.07123,2.065177 0.55074,1.325697 1.02711,2.846176 0.99138,3.164239 1.32757,5.504835 0.0358,0.431047 -0.31852,0.74061 -0.35429,0.309564 -0.87207,0.471789 -0.42738,0.1339 -0.88002,0.15838 -0.44441,0.02191 -0.78565,-0.0878 -0.33302,-0.112276 -0.41542,-0.375278 -0.17768,-0.567097 -0.36685,-1.401359 -0.246918,-1.104988 -0.625443,-2.313153 -0.05922,-0.189032 -0.334114,-0.202189 -0.277464,-0.02138 -0.573341,0.07132 -0.312315,0.09785 -0.55006,0.28967 -0.232102,0.181025 -0.172877,0.370058 0.530343,1.548698 0.983825,2.679224 0.297007,0.746324 0.402582,1.083295 0.0618,0.197251 -0.207234,0.462052 -0.271608,0.256583 -0.70918,0.501983 -0.440147,0.237182 -0.883963,0.376233 z m 11.514935,-2.599021 -0.19727,0.01798 q -1.26085,0.114892 -2.02899,-0.247534 -0.76893,-0.371003 -1.05462,-1.797905 -0.58079,-3.051863 -0.85044,-6.010999 -0.13287,-1.458126 -0.16119,-2.623083 0.0294,-1.101029 2.14092,-1.466406 0.74074,-0.128038 1.30684,-0.179622 1.055,-0.09613 1.78564,-0.05028 0.72987,0.03727 1.38023,0.246112 0.17,0.06234 0.27455,0.355513 0.10377,0.28459 0.14051,0.687719 0.0422,0.463169 -0.0201,0.918563 -0.0537,0.454612 -0.22363,0.772791 -0.16213,0.30882 -0.44517,0.334612 -0.25732,0.02345 -0.79772,-0.117574 -0.84843,-0.199439 -1.2344,-0.164268 -0.84057,0.07659 -0.77804,0.762772 0.0391,0.42886 0.18102,0.562949 0.14974,0.12473 0.41564,0.100501 0.18012,-0.01641 0.4,-0.07104 0.27836,-0.07726 0.62145,-0.108519 0.25731,-0.02345 0.43904,0.167555 0.18952,0.181645 0.29641,0.500544 0.1069,0.3189 0.14051,0.68772 0.05,0.548941 -0.0684,1.052692 -0.1192,0.495174 -0.41082,0.521748 -0.45459,0.04142 -0.76183,-0.0084 -0.20976,-0.02413 -0.36415,-0.01006 -0.2659,0.02423 -0.34305,0.221525 -0.0686,0.196515 -0.005,0.891269 0.05,0.548941 0.33624,0.747719 0.28543,0.190201 0.6371,0.158157 0.32593,-0.0297 0.73449,-0.196656 0.40856,-0.166956 0.8561,-0.380705 l 0.11617,-0.05383 q 0.0663,-0.03198 0.13489,-0.03824 0.28305,-0.02579 0.49988,0.265793 0.21606,0.283007 0.35183,0.729002 0.13499,0.437417 0.17485,0.874855 0.0359,0.394552 -0.0139,0.701788 -0.0498,0.307237 -0.20578,0.399282 -0.51146,0.271465 -1.46662,0.514174 -0.95515,0.242708 -1.93296,0.331808 z m 8.22251,-0.01043 q -1.09622,-0.116892 -1.87032,-0.736454 -0.7732,-0.628126 -1.23489,-1.578162 -0.45222,-0.957686 -0.61612,-2.101167 -0.15443,-1.151132 -0.0311,-2.307298 0.11872,-1.113345 0.48797,-2.139345 0.36925,-1.025999 0.97168,-1.801932 0.61191,-0.783585 1.44331,-1.188641 0.83231,-0.413621 1.86857,-0.303121 1.15617,0.123284 1.90858,0.783841 0.76098,0.66147 1.09913,1.632977 0.33906,0.962942 0.23347,2.03438 -0.0356,0.334003 -0.60656,0.489662 -0.56146,0.148008 -1.16952,0.08317 -0.51385,-0.05479 -0.90575,-0.278476 -0.39099,-0.232247 -0.40528,-0.666849 0.006,-0.215931 -0.0314,-0.436428 -0.0362,-0.229062 -0.14058,-0.387438 -0.10346,-0.166941 -0.309,-0.188858 -0.334,-0.03562 -0.60816,0.342245 -0.26559,0.378773 -0.45398,1.008302 -0.17891,0.621879 -0.25562,1.341271 -0.0831,0.779342 -0.0246,1.530474 0.068,0.743481 0.29944,1.253212 0.24096,0.50208 0.67773,0.548654 0.2398,0.02557 0.45926,-0.245522 0.21946,-0.271091 0.38046,-0.643695 0.16956,-0.371691 0.2376,-0.684913 0.0571,-0.210452 0.35923,-0.282173 0.31071,-0.07081 0.72179,-0.02697 0.41964,0.04475 0.86167,0.204483 0.4506,0.160648 0.74373,0.417106 0.29313,0.256458 0.25843,0.581898 -0.11828,0.784253 -0.50478,1.565888 -0.34402,0.708211 -0.89337,1.229959 -1.17816,1.138959 -2.95095,0.949923 z m 8.57015,1.988826 q -1.06875,-0.361615 -1.69725,-1.110722 -0.6285,-0.749106 -0.87459,-1.741613 -0.23794,-0.989746 -0.15396,-2.097879 0.0922,-1.105373 0.45652,-2.182281 0.38922,-1.150334 1.01191,-2.130751 0.63084,-0.977655 1.4373,-1.641303 0.80646,-0.663648 1.7499,-0.89907 0.94343,-0.235421 1.95507,0.106871 1.03612,0.350574 1.65345,1.15955 0.6201,0.800817 0.86582,1.875031 0.25389,1.076974 0.16677,2.274972 -0.0871,1.197998 -0.47081,2.332015 -0.35609,1.052434 -0.94301,1.954026 -0.58417,0.893435 -1.36854,1.491815 -0.78438,0.598381 -1.74125,0.792888 -0.9541,0.186348 -2.04733,-0.183549 z m 1.05411,-3.0348 q 0.34266,0.115938 0.68991,-0.184817 0.35002,-0.308913 0.66035,-0.876749 0.31033,-0.567836 0.53945,-1.244983 0.24291,-0.717939 0.35793,-1.460967 0.12318,-0.740268 0.0493,-1.27443 -0.0657,-0.531402 -0.40019,-0.644579 -0.52213,-0.176667 -1.05096,0.526364 -0.52607,0.694872 -0.93462,1.902315 -0.24291,0.717939 -0.35505,1.425573 -0.10122,0.702236 -0.008,1.206525 0.0931,0.504289 0.45202,0.625748 z m 7.72921,7.155751 q -0.7089,-0.442049 -1.14885,-1.234035 -0.43264,-0.787429 -0.49856,-1.853686 -0.0659,-1.066257 0.29885,-2.351154 0.37663,-1.287647 1.2744,-2.727383 0.93423,-1.498201 1.50758,-2.368834 0.58065,-0.866075 1.03387,-1.365014 0.3037,-0.307977 0.76937,-0.240899 0.47754,0.06433 0.93796,0.35143 0.62851,0.39192 0.98601,0.909193 0.3575,0.517273 0.1342,0.87538 -0.25521,0.409265 -0.62262,0.900811 -0.98641,1.354009 -2.01178,2.998377 -0.5651,0.906229 -0.8191,1.590291 -0.24215,0.68131 -0.24353,1.106746 0.0105,0.422685 0.2078,0.545729 0.21194,0.132159 0.59336,-0.0563 0.39328,-0.191212 0.89758,-0.739503 0.51616,-0.551041 1.09948,-1.486503 0.74738,-1.198562 1.59933,-2.808971 0.39906,-0.786462 0.72262,-1.305351 0.15039,-0.241174 0.50094,-0.266185 0.35785,-0.02045 0.78982,0.116955 0.43652,0.130101 0.80924,0.362519 0.46043,0.287104 0.72103,0.683055 0.27246,0.3932 0.12955,0.801436 -0.34059,0.822919 -0.97216,1.900851 -0.63156,1.077933 -1.33337,2.203411 -0.89321,1.432427 -1.8938,2.320846 -0.98872,0.885669 -1.97795,1.283823 -0.98922,0.398154 -1.88945,0.344306 -0.90022,-0.05385 -1.60182,-0.491339 z m 5.81024,4.202995 q -0.28976,-0.294865 -0.43337,-0.588455 -0.14361,-0.293589 -0.0259,-0.517906 0.48213,-0.811904 1.49711,-1.966312 1.02112,-1.160444 2.20672,-2.325544 2.24834,-2.209465 4.00142,-3.497514 0.38584,-0.246339 0.87133,-0.04721 0.49164,0.193089 0.89007,0.598527 0.36824,0.374724 0.46895,0.698391 0.1129,0.323774 0.0616,0.615664 -0.0451,0.285854 -0.12669,0.559209 -0.0561,0.151769 -0.0941,0.309788 l -0.25888,1.051375 q -0.20781,0.783844 -0.3094,1.258007 -0.10158,0.474162 -0.005,0.57245 0.0905,0.09215 0.42228,-0.233841 0.172,-0.169031 0.40025,-0.50201 0.20335,-0.272293 0.48668,-0.635244 0.28936,-0.356807 0.70708,-0.767309 0.14129,-0.138846 0.48751,-0.03229 0.34622,0.106556 0.73978,0.371874 0.40574,0.265424 0.71965,0.58486 0.28977,0.294865 0.43338,0.588454 0.14361,0.29359 0.0321,0.511871 -0.48213,0.811903 -1.49097,1.960274 -1.00269,1.142334 -2.19443,2.313471 -2.25449,2.215501 -4.03203,3.515523 -0.35523,0.22834 -0.77421,0.0846 -0.41284,-0.14978 -0.80523,-0.54906 -0.67009,-0.681881 -0.72684,-1.157424 -0.0507,-0.4694 0.28461,-1.2095 l 0.37993,-0.965054 q 0.44814,-1.104537 0.698,-1.821021 0.26205,-0.716377 0.15338,-0.826952 -0.0906,-0.09215 -0.4837,0.29421 -0.20886,0.205251 -0.51104,0.635031 -0.77699,1.10167 -1.72916,2.037372 -0.14743,0.144883 -0.49365,0.03833 -0.34008,-0.112592 -0.73978,-0.371873 -0.39356,-0.265318 -0.70748,-0.584754 z m 7.98463,9.690863 q -0.28681,-0.47072 -0.39482,-0.92936 -0.0962,-0.45577 0.17241,-0.71019 1.32632,-1.10063 3.18713,-2.23445 0.77963,-0.47503 1.63924,-0.91812 0.8596,-0.44309 1.69072,-0.9495 0.6031,-0.367479 0.32077,-0.830842 -0.0672,-0.110325 -0.24097,-0.246511 -0.1664,-0.140667 -0.37727,-0.304665 -0.21086,-0.163998 -0.4099,-0.325122 -0.19167,-0.165606 -0.27234,-0.297995 -0.14789,-0.242714 0.0359,-0.586657 0.18377,-0.343942 0.55371,-0.680292 0.36545,-0.343705 0.76262,-0.585705 0.34569,-0.21063 0.64344,-0.301288 0.30512,-0.09514 0.45198,-0.0031 0.57882,0.403734 1.33127,1.357245 0.75692,0.960865 1.46051,2.115596 0.7036,1.154726 1.20597,2.260606 0.50686,1.11324 0.60026,1.81275 0.0145,0.17272 -0.20998,0.40025 -0.21709,0.22305 -0.56277,0.43368 -0.42659,0.25993 -0.8996,0.42711 -0.46566,0.16271 -0.84822,0.16384 -0.37521,-0.003 -0.52758,-0.25342 -0.0986,-0.16181 -0.22428,-0.83156 -0.10743,-0.59011 -0.18361,-0.71514 -0.13893,-0.22801 -0.38681,-0.18791 -0.2434,0.0474 -0.65528,0.29841 -1.31654,0.80219 -2.91349,1.85592 -1.29252,0.85815 -2.3737,1.51693 -0.60311,0.36748 -0.99614,0.56662 -0.28144,0.10089 -0.75695,-0.31537 -0.46368,-0.41338 -0.8222,-1.00178 z m 3.17391,6.34484 q -0.12426,-0.35801 -0.13892,-0.66289 -0.004,-0.29958 0.17431,-0.44341 1.02017,-0.76434 3.00032,-1.65219 1.98015,-0.88786 3.94107,-1.56846 1.87955,-0.65237 3.20533,-0.93019 0.908,-0.14194 1.53939,1.36198 0.22425,0.51476 0.36828,0.92973 l 0.048,0.13832 q 0.51681,1.48899 0.33597,2.72782 -0.17271,1.23601 -0.85411,2.08334 -0.67857,0.85547 -1.6631,1.19718 -1.78191,0.61848 -3.38317,-0.23885 -0.15345,-0.0744 -0.25741,-0.11122 -0.093,-0.0315 -0.17436,-0.003 -0.11392,0.0395 -0.29057,0.2923 -0.1657,0.25808 -0.39265,0.62859 -0.216,0.37583 -0.47267,0.76577 -0.25668,0.38994 -0.5416,0.69852 -0.27678,0.30575 -0.55342,0.40177 -0.38242,0.13273 -0.89159,-0.0735 -0.49821,-0.20086 -0.92802,-0.59869 -0.41886,-0.39251 -0.57136,-0.83188 -0.17509,-0.50447 0.13356,-0.87599 1.4402,-1.603 1.33006,-1.92033 -0.0424,-0.12205 -0.36251,-0.02 -0.13019,0.0452 -0.29756,0.16709 -0.1433,0.0862 -0.33542,0.18936 -0.18929,0.11128 -0.4578,0.20448 -0.19528,0.0678 -0.49572,-0.21997 -0.29761,-0.2796 -0.5838,-0.7364 -0.27522,-0.45148 -0.43054,-0.89899 z m 7.33336,-0.1476 q 0.1603,0.40932 0.55354,0.49163 0.39607,0.0905 0.77849,-0.0423 0.40683,-0.1412 0.67762,-0.49046 0.27363,-0.34113 0.14836,-0.78084 -0.0812,-0.18149 -0.4434,-0.1743 -0.35122,0.0125 -0.74178,0.14806 -0.41496,0.14402 -0.72812,0.37124 -0.31034,0.23534 -0.25318,0.45254 z m -4.49228,11.17416 q -0.0787,-0.64114 0.009,-1.19859 0.0974,-0.54995 0.35502,-0.64232 0.88606,-0.20423 2.7465,-0.45865 0.5717,-0.0789 0.86566,-0.15833 0.295,-0.0709 0.49612,-0.19974 0.21072,-0.12132 0.51038,-0.36636 l 0.49118,-0.38136 q 3.86722,-2.92177 4.53401,-3.00362 0.42743,-0.0525 0.84224,0.28708 0.41481,0.33957 0.70424,0.85939 0.29047,0.52837 0.35029,1.01564 0.0714,0.5813 -0.2241,0.86054 -0.22692,0.20141 -0.75425,0.50043 -0.51877,0.29797 -1.12093,0.62354 -0.70055,0.37235 -1.21932,0.67033 -0.51773,0.30652 -0.50303,0.4262 0.0105,0.0855 0.2176,0.14683 0.20711,0.0614 0.58189,0.14551 0.29365,0.0594 0.67803,0.15105 1.91545,0.47641 2.61776,0.75464 0.30204,0.1278 0.36396,0.63216 0.0598,0.48727 -0.10713,1.10651 -0.1659,0.62778 -0.48102,1.10033 -0.31407,0.48111 -0.71585,0.53043 -0.15388,0.0189 -0.31825,-0.0477 -0.4931,-0.19979 -2.10814,-0.77381 -1.90539,-0.67723 -2.99629,-1.08131 -0.47391,-0.18479 -0.7536,-0.27193 -0.27865,-0.0786 -0.5564,-0.0792 -0.27671,0.008 -0.78107,0.0699 -0.75123,0.10089 -1.2364,0.17781 -0.41573,0.0771 -0.93719,0.14108 -0.30775,0.0378 -0.61115,0.0403 -0.40163,-0.0201 -0.63347,-0.49494 -0.23183,-0.47483 -0.30634,-1.08178 z"
         id="text1"
         aria-label="CLICKTHECOUNTRY" /><g
         id="g1"
         transform="matrix(0.08519954,0,0,0.07904243,77.448918,90.235677)"><ellipse
           rx="394.26999"
           ry="393.78"
           cy="393.78"
           cx="394.26999"
           fill="#7fafde"
           id="ellipse1" /><path
           fill="#127b12"
           d="m 402.8,1.4829 c -2.935,-0.06412 -6.0931,0.49375 -8.8406,0.64688 -58.34,-0.88 -116.45,13.29 -169.14,38.05 -114.11,53.29 -198.3,165.69 -216.86,290.32 3.27,21.47 -2.6606,49.639 15.959,64.089 -2.89,10.43 -5.5191,25.31 6.3109,31.23 10.03,-0.03 23.79,4.9106 23.38,16.891 -7.88,9.84 -23.451,17.17 -24.241,30.75 10.22,3.26 12.9,9.82 8.7703,18.4 24.44,4.9 11.89,38.66 30.18,51.13 19.47,15.46 48.151,24.62 56.761,50.07 8.87,10.6 21.939,18.17 25.719,32.38 6.14,17.76 22.781,30.58 40.961,33.92 15.64,9.62 19.919,31.12 36.089,40.13 9.53,2.19 19.411,3.3506 27.361,9.7906 28.37,3.86 53.9,26.36 83.63,18.03 -3.98,-12.45 -21.791,-9.2897 -30.641,-16.13 -8.31,-11.89 -21.359,-20.93 -22.119,-36.68 -5.12,-17.59 -25.52,-2.6103 -33.07,-12.47 9,-18.33 3.6,-38.481 3.35,-58.111 3.05,-14.18 20.499,-18.859 23.589,-32.959 0.5,-11.87 -9.5088,-24.42 -2.2688,-35.85 8.78,-12.15 12.24,-35.12 -5.9703,-40.62 -15.46,-4.51 -24.05,-26.17 -42.38,-18.87 -13.86,0.56 12.219,-15.269 -0.16093,-19.539 -15.14,-4.8 -24.149,-20.161 -40.059,-22.941 -5.67,-1.99 -16.43,-1.7703 -16.03,-10.02 0.97,-4.92 -2.3209,-10.35 -7.5109,-8.3797 -13.72,10.53 -33.109,4.1103 -44.189,-7.1797 -8.27,-5.18 -11.471,6.68 -16.991,9.55 -13.36,-2.93 -21.05,10.29 -33.57,11 -3.67,0.27 -9.5603,6.1506 -10.97,0.29062 -2.27,-8.39 -12.369,-9.8812 -16.969,-16.231 1.82,-8.65 12.91,-14.589 8.25,-24.339 -0.93,-7.35 -9.4006,-5.7506 -13.591,-9.3906 -2.85,-7.72 3.9597,-14.54 10.78,-16.88 1.82,-5.93 3.3409,-11.96 6.8109,-17.2 -13.1,-9.85 -23.03,10.869 -30.27,18.709 -12.3,-2.65 -5.3097,-19.029 -3.8797,-27.619 1.65,-14.44 18.09,-17.72 26.83,-26.32 2.69,-14.11 22.659,-17.071 32.439,-8.2406 10.53,-3.11 21.311,-9.3091 32.311,-11.489 6.94,9.6 2.1103,26.009 10.62,33.939 10.91,-4.09 10.62,-20.57 11.75,-30.8 4.61,-6.38 11.109,-11.779 13.739,-19.489 5.88,-20.98 34.63,-17.121 44.88,-35.381 6.42,-4.84 9.5606,5.83 15.141,6.9 9.74,-8.68 -0.36062,-24.47 8.2094,-34.3 3.68,-14.71 28.141,-12.159 22.991,-29.789 -4.31,-13.81 -2.53,-31.211 -13.05,-42.241 0.25,13.7 -13.431,17.421 -23.941,14.941 -4.75,-9.41 9.4009,-17.16 5.2609,-25.28 -19.13,-7.78 -32.53,10.609 -38.62,25.989 -12.15,5.3 -21,29.42 -35.52,16.93 3.05,-12.75 1.3003,-26.069 3.0203,-39.019 14.98,-10.69 33.14,-18.161 48.07,-29.411 -3.36,-2.55 -7.1106,-5.2491 -7.0406,-9.9891 11.88,-2.33 20.211,-12.431 31.941,-14.811 10.14,-0.98 -1.3309,19.421 9.9391,14.791 16.99,-2.79 -0.17876,21.92 4.2312,29.72 8.75,4.75 13.68,-6.0503 15.9,-12.62 8.51,-4.89 21.779,-2.4203 24.559,-14.67 9.01,-11.79 -1.07,-35.421 19.7,-35.291 17.02,0.05 34.301,-7.71 51.091,-3.6 2.41,9.28 -12.73,8.3509 -14.22,16.761 -15.55,2.56 -35.48,20.159 -27.32,36.489 -10.52,5.71 -21.831,12.891 -27.991,23.131 16.11,6.91 30.831,-4.9903 45.781,-8.9703 13.29,-9.15 31.19,-14.521 39,-29.491 0.12,-23.16 26.91,-26.64 42.33,-35.65 8.8,-11.17 -5.75,-20.51 2.6,-31.13 8.2,-3.2 16.65,-10.47 16.05,-20.07 -1.6819,-4.3144 -5.0858,-5.4238 -8.8594,-5.5062 z m 103.91,16.877 c 4.07,9.68 15.679,11.14 24.689,12.42 2.25,6.57 -12.499,5.6794 -9.9094,14.059 1.78,9.97 -11.32,17.311 -18.6,12.941 11.9,-6.49 6.46,-19.73 -5,-21.35 -7.67,-14.28 -22.499,-7.5709 -27.709,5.1391 -15.65,7.02 -11.841,31.581 -31.231,32.761 -14.17,1.2 -16.869,17.499 -17.819,28.859 6.58,-0.29 11.409,-5.56 17.659,-7 4.4,7.1 0.43062,17.02 4.2906,23.85 10.75,4.2 12.509,-11.46 17.469,-17.3 6.17,-7.21 -9.26,-14.189 -0.9,-20.609 10.61,-6.83 19.181,-15.95 26.691,-26.02 -1.37,14.56 2.7397,33.23 -14.07,41.58 8.34,19.74 22.261,-10.239 35.241,-2.6094 -3.69,10.23 -20.771,12.75 -20.461,25.32 -0.05,5.39 -1.4794,14.82 -9.1594,12.68 -10.99,-4.26 -16.36,7.8491 -22.42,13.989 -13.39,1.76 -12.65,-17.01 -18.33,-22.6 -6.12,16.47 -0.34969,34.431 -10.73,49.331 -7.29,4.49 -14.43,9.5488 -22.45,12.619 -5.73,0.4 -15.511,-1.5591 -15.991,6.7609 4.79,8.07 13.09,17.54 6.0203,27.03 -4,9.24 -11.84,-1.2403 -17.23,-2.9203 -7.94,-4.81 -25.08,0.41969 -18.38,11.63 3.77,11.88 -16.721,17.86 -13.061,29.05 6.71,4.97 -5.13,8.2003 -3.15,13.97 3.67,4.1 10.79,-0.62969 13.83,4.3703 5.43,7.19 13.25,14.611 21.82,16.441 -2.25,-12.16 8.84,-17.631 19.35,-16.691 15.59,-1.97 10.28,-22.09 20.37,-29.15 6.77,-11.8 20.86,-15.31 31.23,-23.5 2.67,12.01 16.01,11.229 25.38,13.509 8.98,6.29 -8.6191,7.8412 -6.8891,14.881 4.63,2.02 10.02,8.8594 15.47,5.2594 3.05,-10.07 1.6,-29.64 16.65,-29.53 6.31,6.96 7.6297,17.449 6.8797,26.539 19.39,0.2 9.3603,-33.51 28.87,-32.88 3.19,19.08 24.429,19.34 38.739,12.48 -7.88,18.36 15.47,25.88 10.72,42.92 15.18,4.67 29.771,14.7 37.691,29.35 9.11,9.22 21.74,17.66 23.3,31.7 1.14,5.27 1.99,14.58 9.35,14.4 12.11,-2.8 22.619,-13.039 25.919,-24.959 7.72,-2.67 18.361,1.6497 24.481,-5.5203 5.03,-3.59 3.2891,-12.09 10.289,-13.52 -1.83,-7.45 -8.9203,-13.44 -16.97,-14.45 1.76,-12.69 -11.769,-9.04 -19.739,-10.5 -2.55,-6.1 -6.7,-12.259 -5.75,-19.209 8.73,-1.32 11.27,11.629 19.45,12.889 11.72,2.67 17.12,-14.859 29.28,-10.769 7.66,0.63 1.9003,15.019 11.57,10.789 10.6,-0.92 6.4203,15.511 13.47,21.561 12.06,10.63 14.329,26.899 18.519,41.439 6.67,2.14 6.2,-9.2797 7.65,-13.13 8.72,-19.33 -10.379,-36.321 -6.8688,-55.741 -38.45,-119.55 -138.54,-217.89 -259.52,-252.56 z m -142.09,84.8 c -11.24,0.91 -24.819,4.7997 -29.489,15.88 8.02,8 16.609,-4.8297 25.389,-4.9297 4.26,0.23 9.34,-10.48 4.1,-10.95 z m 46.484,35.594 c -0.15381,-0.008 -0.3225,-0.006 -0.50468,0.006 -6.76,7.48 -18.009,20.81 -10.759,30.67 4.74,-5.24 15.79,-9.4897 10.4,-17.93 -2.8384,-3.3034 5.6322,-12.511 0.86406,-12.747 z m -17.594,12.116 c -5.8,3.38 -16.36,9.1109 -12.48,17.161 9.67,5.75 18.07,-15.351 12.48,-17.161 z m 71.016,49.647 c 0.84512,0.12972 -0.75376,2.6212 -0.65625,3.6938 -3.54,11.4 16.28,13.39 13.62,24.82 -17.28,3.64 -31.381,-18.49 -13.991,-28.18 0.50624,-0.26812 0.83153,-0.36431 1.0266,-0.33437 z m 9.5812,64.016 c -0.84141,-0.0136 -1.7369,0.0503 -2.6875,0.19844 -13.15,3.72 -25.86,9.2591 -39.95,8.5891 -10.74,-0.38 -13.859,15.541 -24.939,12.091 -6.84,-1.46 -13.281,0.37031 -18.781,4.5703 -10.83,4.67 2.8106,21.3 -10.209,25.03 -17.25,5.49 -12.411,27.371 -27.791,35.191 -10.5,7.26 2.82,20.909 -6.45,28.539 -2.77,4.21 -12.149,4.7597 -11.159,10.98 7.21,4.44 13.51,10.211 18.8,16.811 -2.33,6.27 -4.5106,12.7 -4.9406,19.43 11.82,7.73 25.631,14.391 40.191,12.541 17.75,-2.41 35.14,3.7088 52.8,2.0688 8.1,-0.44 16.101,4.6909 20.241,11.361 -0.5,25.83 27.42,45.39 22.3,71.98 -0.96,10.27 -13.281,15.701 -13.331,25.841 19.15,10.03 21.511,33.049 32.791,49.519 5.93,15.9 22.841,21.791 34.841,32.011 10.64,10.89 27.499,4.84 39.669,12.65 13.92,-0.11 7.2809,-20.391 16.361,-27.741 20.38,-22.88 20.599,-54.189 19.989,-82.839 12.56,-24.38 -11.749,-47.201 -5.3188,-72.311 1.45,-24.71 29.929,-31.209 41.309,-49.839 8.57,-15.28 22.47,-26.59 37.08,-35.8 11.05,-4.39 6.4506,-20.26 2.1406,-26.75 -13.42,-1.22 -15.86,19.02 -30.17,12.98 -22.87,-7.5 -28.709,-34.621 -48.659,-45.641 -6.86,-7.23 -0.0113,-20.36 -8.5812,-26.55 -8.15,-8.36 -21.319,-7.1603 -29.959,-0.32031 -10.5,8.43 -23.61,1.4603 -35.1,-0.17969 -5.26,-5.2 -16.97,-16.9 -22.62,-5.7203 -5.83,14.33 -25.449,9.6003 -35.059,5.4703 10.209,-6.4969 9.8182,-23.954 -2.8031,-24.158 z m -369.93,48.388 c 8.02,13.07 -16.071,11.371 -9.4609,20.691 15.36,3.77 14.671,26.95 30.761,31.57 7.13,0.06 16.9,3.2097 22.85,-1.6703 -5.15,-4.91 -13.351,-2.7603 -18.961,-6.5203 -5.4,-7.62 -12.789,-15.099 -14.109,-24.639 4.18,-7.81 -5.4897,-17.821 -11.08,-19.431 z m 21.114,58.592 c -0.31271,0.003 -0.62782,0.0197 -0.94531,0.0484 -5.62,5.77 15.731,11.64 14.431,3.1297 -4.6125,-0.6 -8.7954,-3.2307 -13.486,-3.1781 z m -1.2844,12.889 c 0.99,9.21 11.16,13.82 18.62,15.63 3.98,-8.83 -11.55,-14.48 -18.62,-15.63 z m 536.34,112.33 c -10.77,11.01 -37.44,19.08 -29.58,38.63 7.24,12.81 -8.44,22.791 -11.75,33.641 5.19,6.8 16.07,1.5188 21.92,-1.9312 5.41,-15.11 10.101,-31.219 19.341,-44.319 -3.85,-8.06 -0.47124,-19.88 0.0687,-26.02 z m 66.006,102.43 c -0.43915,-0.0161 -1.0562,0.13281 -1.8953,0.49531 -11.1,2.18 -10.94,17.929 -21.42,21.759 -11.13,8.51 -25.889,6.3306 -38.259,10.891 4.42,5.58 9.5394,12.74 1.8594,18.62 -12.54,11.51 -23.26,25.149 -37.83,34.309 4.61,4.55 10.51,-1.06 15.85,-0.85 3.76,3.42 0.74907,8.14 -0.76093,11.85 32.74,-24.03 57.64,-57.19 80.82,-90.15 1.1812,-1.9491 4.0074,-6.8383 1.6359,-6.925 z"
           id="path1" /></g></g></g></svg>
